<?xml version="1.0" encoding="utf-8"?>
<!-- Generator: Adobe Illustrator 23.1.0, SVG Export Plug-In . SVG Version: 6.00 Build 0)  -->
<svg version="1.1" id="Soundcloud" xmlns="http://www.w3.org/2000/svg" xmlns:xlink="http://www.w3.org/1999/xlink" x="0px" y="0px"
	 viewBox="0 0 87.2 27.4" style="enable-background:new 0 0 87.2 27.4;" xml:space="preserve">
<style type="text/css">
	.st0{fill:#9EEBCF;}
	.st1{fill:#EF7919;}
	.st2{fill:none;stroke:#9EEBCF;stroke-width:0.2341;stroke-miterlimit:10;}
	.st3{fill:#FFFFFF;}
	.st4{font-family:'Helvetica';}
	.st5{font-size:4.0652px;}
</style>
<path class="st0" d="M36.5,16.1h-2.2v-0.7c-0.1,0.1-0.3,0.3-0.5,0.4c-0.2,0.1-0.4,0.2-0.6,0.3c-0.2,0.1-0.4,0.1-0.6,0.2
	c-0.2,0-0.4,0.1-0.6,0.1c-0.4,0-0.9-0.1-1.3-0.2s-0.8-0.4-1.1-0.6c-0.3-0.3-0.6-0.7-0.7-1.1c-0.2-0.5-0.3-1-0.3-1.6V7.4h2.2v5.1
	c0,0.3,0,0.6,0.1,0.8c0.1,0.2,0.2,0.4,0.4,0.6c0.2,0.2,0.3,0.3,0.5,0.3c0.2,0.1,0.4,0.1,0.6,0.1c0.7,0,1.3-0.2,1.8-0.7V7.4h2.2V16.1
	z"/>
<path class="st0" d="M46.6,11.8c0,0.6-0.1,1.2-0.3,1.7c-0.2,0.5-0.5,1-0.9,1.4c-0.4,0.4-0.8,0.7-1.3,1c-0.5,0.2-1.1,0.4-1.7,0.4
	c-0.4,0-0.7-0.1-1.1-0.2c-0.3-0.1-0.6-0.3-0.9-0.5v0.4h-2.2V3.7h2.2l0,4.2c0.2-0.2,0.5-0.4,0.9-0.5c0.3-0.1,0.7-0.2,1.1-0.2
	c0.5,0,1,0.1,1.5,0.4c0.5,0.2,0.9,0.6,1.3,1c0.4,0.4,0.7,0.9,0.9,1.4C46.5,10.5,46.6,11.1,46.6,11.8z M44.4,11.8
	c0-0.4-0.1-0.8-0.2-1.1c-0.1-0.3-0.3-0.6-0.5-0.8c-0.2-0.2-0.5-0.4-0.8-0.5c-0.3-0.1-0.6-0.2-1-0.2c-0.2,0-0.5,0-0.8,0.1
	c-0.3,0.1-0.5,0.2-0.7,0.4v4.2c0.5,0.4,1,0.6,1.6,0.6c0.3,0,0.7-0.1,1-0.2c0.3-0.1,0.5-0.3,0.8-0.5c0.2-0.2,0.4-0.5,0.5-0.8
	C44.3,12.5,44.4,12.1,44.4,11.8z"/>
<path class="st0" d="M64.4,5.9h-2.2V3.7h2.2V5.9z M64.3,16.1h-2.2V7.4h2.2V16.1z"/>
<path class="st0" d="M60.8,15.9c-0.2,0.1-0.5,0.2-0.8,0.3c-0.3,0.1-0.6,0.1-0.9,0.1c-0.5,0-0.9-0.1-1.3-0.2
	c-0.3-0.1-0.6-0.3-0.8-0.6c-0.2-0.3-0.4-0.6-0.5-1c-0.1-0.4-0.1-0.9-0.1-1.4V9.4h-1.1v-1C56,8.1,56.6,7.7,57,7.1
	c0.4-0.6,0.7-1.3,0.9-2.2h0.7v2.5h2.2v1.9h-2.2v3.9c0,0.2,0,0.4,0.1,0.5c0.1,0.1,0.1,0.2,0.2,0.3c0.1,0.1,0.2,0.1,0.3,0.2
	c0.1,0,0.2,0,0.4,0c0.2,0,0.4,0,0.6-0.1c0.2-0.1,0.4-0.2,0.6-0.3V15.9z"/>
<path class="st0" d="M54.9,7.4l-3.9,10.3c-0.3,0.8-0.7,1.3-1.1,1.7c-0.5,0.3-1,0.5-1.7,0.5c-0.1,0-0.2,0-0.3,0c-0.1,0-0.2,0-0.3-0.1
	l-0.7-2c0.2,0.1,0.3,0.1,0.5,0.2c0.2,0,0.3,0.1,0.5,0.1c0.3,0,0.6-0.1,0.9-0.2c0.3-0.2,0.5-0.4,0.6-0.9l0.3-0.9l-3.3-8.6h2.3l2,5.6
	l1.9-5.6H54.9z"/>
<path class="st0" d="M71.2,5.6c-0.2-0.1-0.4-0.1-0.6-0.2c-0.2,0-0.3,0-0.5,0c-0.4,0-0.7,0.1-0.9,0.3c-0.2,0.2-0.3,0.5-0.3,1v0.7h1.4
	v1.9H69v6.7h-2.2V9.3h-1V7.5h1V6.8c0-1.1,0.2-1.9,0.6-2.5c0.4-0.6,1.1-0.9,2.1-0.9c0.6,0,1.1,0.1,1.6,0.2V5.6z"/>
<path class="st0" d="M79.7,7.4l-3.9,10.3c-0.3,0.8-0.7,1.3-1.1,1.7c-0.5,0.3-1,0.5-1.7,0.5c-0.1,0-0.2,0-0.3,0c-0.1,0-0.2,0-0.3-0.1
	l-0.7-2c0.2,0.1,0.3,0.1,0.5,0.2c0.2,0,0.3,0.1,0.5,0.1c0.3,0,0.6-0.1,0.9-0.2c0.3-0.2,0.5-0.4,0.6-0.9l0.3-0.9l-3.3-8.6h2.3l2,5.6
	l1.9-5.6H79.7z"/>
<g>
	<polygon class="st1" points="16.9,16.3 14.8,15.5 8.9,0.2 11.1,1.5 	"/>
</g>
<g>
	<polygon class="st1" points="13.2,16.5 11.1,15.3 5.2,4.4 7.5,6.1 	"/>
</g>
<g>
	<polygon class="st1" points="9.5,16.7 7.4,15.1 1.6,7.1 4,9.4 	"/>
</g>
<path class="st0" d="M27.4,15.4c-0.1-0.2-0.2-0.5-0.3-0.8c-0.1-0.3-0.2-0.5-0.2-0.7c-0.1-0.2-0.1-0.4-0.2-0.6s-0.1-0.4-0.2-0.5
	s-0.1-0.3-0.2-0.5c-0.1-0.4-0.3-0.7-0.6-0.9c-0.2-0.3-0.5-0.5-0.9-0.6c0.3-0.1,0.6-0.3,0.9-0.5c0.3-0.2,0.5-0.5,0.7-0.7
	c0.2-0.3,0.4-0.6,0.5-0.9c0.1-0.3,0.2-0.7,0.2-1c0-0.5-0.1-0.9-0.3-1.4c-0.2-0.4-0.4-0.8-0.7-1.1c-0.3-0.3-0.7-0.5-1.1-0.7
	c-0.4-0.2-0.9-0.3-1.4-0.3l-2.1,0v0h-2.1V16h2.1v-4.7h0.6c0.4,0,0.7,0,0.9,0.1c0.3,0.1,0.5,0.2,0.7,0.4c0.2,0.2,0.3,0.4,0.5,0.6
	c0.1,0.2,0.2,0.5,0.3,0.8l0.8,2.7h2.5C27.6,15.9,27.5,15.7,27.4,15.4z M24.5,8.5c-0.1,0.2-0.2,0.4-0.4,0.6c-0.2,0.2-0.4,0.3-0.6,0.4
	c-0.2,0.1-0.5,0.1-0.8,0.1h-1.4V5.8h1.4c0.3,0,0.5,0,0.8,0.1c0.2,0.1,0.5,0.2,0.6,0.4c0.2,0.2,0.3,0.4,0.4,0.6
	c0.1,0.2,0.2,0.5,0.2,0.8S24.6,8.2,24.5,8.5z"/>
<g>
	<g>
		<path class="st0" d="M83.9,6.5h-0.4l-0.1-0.4c0,0,0-0.1-0.1-0.1c0,0,0-0.1-0.1-0.1c0,0-0.1,0-0.1-0.1c0,0-0.1,0-0.1,0h-0.1v0.7
			h-0.4V4.7l0.7,0c0.1,0,0.2,0,0.2,0c0.1,0,0.1,0.1,0.2,0.1c0,0,0.1,0.1,0.1,0.2c0,0.1,0,0.1,0,0.2c0,0.1,0,0.1,0,0.2
			c0,0.1,0,0.1-0.1,0.1c0,0-0.1,0.1-0.1,0.1c0,0-0.1,0.1-0.1,0.1c0.1,0,0.1,0.1,0.1,0.1c0,0,0.1,0.1,0.1,0.1c0,0,0,0.1,0,0.1
			c0,0,0,0.1,0,0.1c0,0,0,0.1,0,0.1c0,0,0,0.1,0,0.1C83.8,6.3,83.8,6.4,83.9,6.5C83.9,6.4,83.9,6.5,83.9,6.5z M83.4,5.2
			c0,0,0-0.1,0-0.1c0,0,0-0.1-0.1-0.1c0,0-0.1,0-0.1-0.1c0,0-0.1,0-0.1,0h-0.3v0.6h0.3c0,0,0.1,0,0.1,0c0,0,0.1,0,0.1-0.1
			c0,0,0-0.1,0.1-0.1C83.4,5.3,83.4,5.3,83.4,5.2z"/>
	</g>
</g>
<circle class="st2" cx="83.1" cy="5.7" r="1.8"/>
<text transform="matrix(1 0 0 1 23.0227 24.566)" class="st3 st4 st5">waves sounds, saved souls</text>
</svg>
